<svg xmlns="http://www.w3.org/2000/svg" viewBox="0 0 48 48">
  <defs>
    <linearGradient id="cloud" x1="0" y1="0" x2="1" y2="1">
      <stop offset="0%" stop-color="#fefefe"/>
      <stop offset="100%" stop-color="#b6dfff"/>
    </linearGradient>
    <linearGradient id="rain" x1="0" y1="0" x2="0" y2="1">
      <stop offset="0%" stop-color="#76c3ff"/>
      <stop offset="100%" stop-color="#1d74d8"/>
    </linearGradient>
  </defs>
  <path d="M15 30c-5 0-9-3.7-9-8.4 0-4.2 3.1-7.7 7.3-8.3C14.7 8.9 18.9 6 23.8 6c6.1 0 11.2 4.4 12.2 10.2 3.8.3 6.8 3.4 6.8 7.2 0 4-3.4 7.6-7.8 7.6H15Z" fill="url(#cloud)" stroke="#6ea8db" stroke-width="1.5"/>
  <path d="M18 33c2 3 2.6 4.2 2.6 5.6a2.6 2.6 0 1 1-5.2 0c0-1.4.6-2.6 2.6-5.6Z" fill="url(#rain)"/>
  <path d="M27 31c2.1 3.2 2.7 4.5 2.7 6a2.7 2.7 0 1 1-5.4 0c0-1.5.6-2.8 2.7-6Z" fill="url(#rain)"/>
  <path d="M36 33c2 3 2.6 4.2 2.6 5.6a2.6 2.6 0 1 1-5.2 0c0-1.4.6-2.6 2.6-5.6Z" fill="url(#rain)"/>
</svg>
