<svg xmlns="http://www.w3.org/2000/svg" viewBox="0 0 148 28" preserveAspectRatio="none">
  <defs>
    <linearGradient id="bucketBody" x1="0" y1="0" x2="0" y2="1">
      <stop offset="0%" stop-color="#edf8ff"/>
      <stop offset="48%" stop-color="#89c5f8"/>
      <stop offset="100%" stop-color="#3178c8"/>
    </linearGradient>
    <linearGradient id="bucketRim" x1="0" y1="0" x2="0" y2="1">
      <stop offset="0%" stop-color="#bfe5ff"/>
      <stop offset="100%" stop-color="#4d97e5"/>
    </linearGradient>
    <linearGradient id="sheen" x1="0" y1="0" x2="0" y2="1">
      <stop offset="0%" stop-color="rgba(255,255,255,0.8)"/>
      <stop offset="100%" stop-color="rgba(255,255,255,0)"/>
    </linearGradient>
    <filter id="shadow" x="-10%" y="-20%" width="120%" height="180%">
      <feDropShadow dx="0" dy="3" stdDeviation="3" flood-color="#4d97e5" flood-opacity="0.35"/>
    </filter>
  </defs>
  <path d="M18 5 H130 C135 5 140 8 142 13 L145 23 C145.5 25.5 143.7 28 141 28 H7 C4.3 28 2.5 25.5 3 23 L6 13 C8 8 13 5 18 5 Z" fill="url(#bucketBody)" stroke="#1e5ca7" stroke-width="1.4" filter="url(#shadow)"/>
  <path d="M15 6 H133 C137 6 140 8 141.5 12 H6.5 C8 8 11 6 15 6 Z" fill="url(#bucketRim)" opacity="0.9"/>
  <path d="M24 12 H124 L120 24 H28 Z" fill="rgba(16,74,135,0.16)"/>
  <g fill="rgba(255,255,255,0.26)">
    <circle cx="36" cy="15" r="2"/>
    <circle cx="55" cy="16" r="1.8"/>
    <circle cx="74" cy="15.5" r="1.8"/>
    <circle cx="93" cy="16" r="1.8"/>
    <circle cx="112" cy="15" r="2"/>
  </g>
  <rect x="20" y="7" width="108" height="5" rx="3" fill="url(#sheen)"/>
  <g fill="#dff3ff" opacity="0.82">
    <rect x="32" y="18" width="10" height="2.5" rx="1.25"/>
    <rect x="69" y="19" width="10" height="2.5" rx="1.25"/>
    <rect x="106" y="18" width="10" height="2.5" rx="1.25"/>
  </g>
</svg>
