<svg xmlns="http://www.w3.org/2000/svg" viewBox="0 0 44 36">
    <defs>
        <linearGradient id="mudBody" x1="0" y1="0" x2="1" y2="1">
            <stop offset="0%" stop-color="#9a7556"/>
            <stop offset="100%" stop-color="#5b3d2e"/>
        </linearGradient>
    </defs>

    <path d="M8 24
             C4 23 2 20 2 17
             C2 13 5 10 9 10
             C9 6 13 3 18 3
             C21 3 24 4 26 6
             C28 3 31 1 35 1
             C40 1 43 5 43 10
             C43 13 42 15 39 17
             C41 18 42 20 42 23
             C42 27 39 30 34 30
             C32 33 29 35 25 35
             C21 35 18 33 16 30
             C15 31 13 32 11 32
             C6 32 3 29 3 25
             C3 24 5 23 8 24 Z"
          fill="url(#mudBody)"
          stroke="#442b22"
          stroke-width="1.4"/>

    <ellipse cx="16" cy="14" rx="4" ry="5.5" fill="rgba(255,255,255,0.12)"/>
    <ellipse cx="27" cy="22" rx="5" ry="4" fill="rgba(255,255,255,0.08)"/>
    <circle cx="34" cy="11" r="2.5" fill="rgba(45,27,20,0.2)"/>
    <circle cx="11" cy="26" r="2.2" fill="rgba(45,27,20,0.18)"/>

    <line x1="14" y1="14" x2="18" y2="16" stroke="#2d1b14" stroke-width="2" stroke-linecap="round"/>
    <line x1="30" y1="14" x2="26" y2="16" stroke="#2d1b14" stroke-width="2" stroke-linecap="round"/>
    <circle cx="16.5" cy="19" r="2.2" fill="#1d120d"/>
    <circle cx="27.5" cy="19" r="2.2" fill="#1d120d"/>
    <path d="M15 27 Q22 22 29 27" stroke="#2d1b14" stroke-width="1.8" fill="none" stroke-linecap="round"/>
</svg>
