<svg xmlns="http://www.w3.org/2000/svg" viewBox="0 0 28 32">
  <defs>
    <radialGradient id="bg" cx="40%" cy="35%" r="62%">
      <stop offset="0%" stop-color="#d8f1ff"/>
      <stop offset="55%" stop-color="#4ea5ff"/>
      <stop offset="100%" stop-color="#0d5ea8"/>
    </radialGradient>
    <radialGradient id="hl" cx="36%" cy="28%" r="30%">
      <stop offset="0%" stop-color="rgba(255,255,255,0.55)"/>
      <stop offset="100%" stop-color="rgba(255,255,255,0)"/>
    </radialGradient>
  </defs>
  <path d="M14 2 C14 2, 3 14, 3 20 a11 11 0 0 0 22 0 C25 14, 14 2, 14 2Z" fill="url(#bg)"/>
  <path d="M14 2 C14 2, 3 14, 3 20 a11 11 0 0 0 22 0 C25 14, 14 2, 14 2Z" fill="none" stroke="#0d5ea8" stroke-width="0.8" opacity="0.5"/>
  <ellipse cx="10" cy="17" rx="3.5" ry="5" fill="url(#hl)" transform="rotate(-15 10 17)"/>
  <circle cx="10" cy="20" r="2.8" fill="white"/>
  <circle cx="18" cy="20" r="2.8" fill="white"/>
  <circle cx="10.8" cy="20.6" r="1.4" fill="#0b2a4f"/>
  <circle cx="18.8" cy="20.6" r="1.4" fill="#0b2a4f"/>
  <circle cx="11.5" cy="19.8" r="0.5" fill="white"/>
  <circle cx="19.5" cy="19.8" r="0.5" fill="white"/>
  <ellipse cx="8" cy="23.5" rx="3" ry="2" fill="rgba(155,220,255,0.45)"/>
  <ellipse cx="20" cy="23.5" rx="3" ry="2" fill="rgba(155,220,255,0.45)"/>
  <path d="M10.5 25 Q14 28 17.5 25" stroke="#0d5ea8" stroke-width="1.3" fill="none" stroke-linecap="round"/>
  <g stroke="#ffffff" stroke-width="1.2" stroke-linecap="round" opacity="0.9">
    <line x1="22" y1="8" x2="22" y2="11"/>
    <line x1="20.5" y1="9.5" x2="23.5" y2="9.5"/>
  </g>
</svg>
