<svg xmlns="http://www.w3.org/2000/svg" viewBox="0 0 40 28">
  <defs>
    <linearGradient id="cloud" x1="0" y1="0" x2="1" y2="1">
      <stop offset="0%" stop-color="#ffffff"/>
      <stop offset="100%" stop-color="#b9dfff"/>
    </linearGradient>
  </defs>
  <path d="M12 25C6 25 1.5 20.7 1.5 15.5C1.5 11 4.8 7.2 9.2 6.4C10.6 2.8 14.2 0.3 18.5 0.3C24 0.3 28.5 4.2 29.6 9.3C34.4 9.6 38.2 13.4 38.2 18.1C38.2 22 35 25 30.9 25H12Z" fill="url(#cloud)" stroke="#71a8d8" stroke-width="1.4"/>
  <path d="M13 27c1.7-2.8 2.2-4 2.2-5.2a2.2 2.2 0 1 0-4.4 0c0 1.2.5 2.4 2.2 5.2Z" fill="#3d9cff"/>
  <path d="M20 27c1.7-2.8 2.2-4 2.2-5.2a2.2 2.2 0 1 0-4.4 0c0 1.2.5 2.4 2.2 5.2Z" fill="#2f85e8"/>
  <path d="M27 27c1.7-2.8 2.2-4 2.2-5.2a2.2 2.2 0 1 0-4.4 0c0 1.2.5 2.4 2.2 5.2Z" fill="#3d9cff"/>
</svg>
